<?xml version="1.0" encoding="UTF-8" standalone="no"?>
<svg
   version="1.1"
   width="16.008677"
   height="16.411316"
   viewBox="0 0 250.13557 256.42681"
   id="svg1"
   sodipodi:docname="icon.svg"
   inkscape:version="1.3.2 (091e20e, 2023-11-25, custom)"
   xmlns:inkscape="http://www.inkscape.org/namespaces/inkscape"
   xmlns:sodipodi="http://sodipodi.sourceforge.net/DTD/sodipodi-0.dtd"
   xmlns="http://www.w3.org/2000/svg"
   xmlns:svg="http://www.w3.org/2000/svg">
  <defs
     id="defs1" />
  <sodipodi:namedview
     id="namedview1"
     pagecolor="#ffffff"
     bordercolor="#000000"
     borderopacity="0.25"
     inkscape:showpageshadow="2"
     inkscape:pageopacity="0.0"
     inkscape:pagecheckerboard="0"
     inkscape:deskcolor="#d1d1d1"
     inkscape:zoom="26.71875"
     inkscape:cx="6.9426901"
     inkscape:cy="11.433918"
     inkscape:window-width="1920"
     inkscape:window-height="1111"
     inkscape:window-x="-9"
     inkscape:window-y="-9"
     inkscape:window-maximized="1"
     inkscape:current-layer="svg1" />
  <g
     id="g1"
     style="display:inline"
     transform="translate(-138.81421,-71.5)">
    <path
       id="path11"
       style="display:inline;fill:#000000;fill-opacity:1;stroke:none;stroke-width:0.377953;stroke-opacity:1"
       d="m 265.375,86.472656 2.41992,11.089844 a 101.63934,101.63934 0 0 1 66.57422,27.72461 l -9.56055,9.56055 a 88.52459,88.52459 0 0 0 -54.09375,-23.89844 l 2.88868,13.23633 a 76.699837,76.699837 0 0 1 65.26171,61.59961 l 12.66993,2.73046 a 88.52459,88.52459 0 0 0 -25.14454,-52.1582 l 9.56446,-9.56445 a 101.63934,101.63934 0 0 1 29.56054,64.73437 l 10.17188,2.19141 A 111.74863,111.74863 0 0 0 265.375,86.472656 Z m -9.29883,0.558594 a 111.74863,111.74863 0 0 0 -103.2832,107.10937 l 10.73633,-2.46874 a 101.63934,101.63934 0 0 1 29.03711,-64.02344 l 9.13671,9.13672 a 88.52459,88.52459 0 0 0 -25.22265,51.91015 l 12.05078,-2.76953 a 76.699837,76.699837 0 0 1 59.76758,-60.86523 l 2.70312,-13.22461 a 88.52459,88.52459 0 0 0 -47.77734,23.3789 l -9.02539,-9.02539 a 101.63934,101.63934 0 0 1 59.57422,-27.896481 z m 119.86524,109.78711 c -3.10625,0.056 -5.93114,0.0925 -9.89649,0.1582 a 101.63934,101.63934 0 0 1 0.004,0.043 l 9.90039,-0.10351 a 111.74863,111.74863 0 0 0 -0.008,-0.0977 z m -5.39649,1.26953 c 1.88046,0.0295 3.5915,0.056 5.40625,0.0859 a 111.74863,111.74863 0 0 0 0.006,-0.0859 z m -217.58789,5.99023 a 111.74863,111.74863 0 0 0 31.15235,71.46876 l -0.0273,0.0273 1.54688,1.54492 0.0488,-0.0488 a 111.74863,111.74863 0 0 0 75.17188,32.51367 l -2.02149,-9.53125 a 101.63934,101.63934 0 0 1 -66.38867,-29.74414 l 8.9961,-8.99609 a 88.52459,88.52459 0 0 0 54.57422,25.44336 l -2.33399,-11.00195 a 76.699837,76.699837 0 0 1 -65.44922,-63.85547 l -11.81445,-2.61914 a 88.52459,88.52459 0 0 0 23.57422,50.39062 l -8.99024,8.99024 A 101.63934,101.63934 0 0 1 163.5,206.41602 Z m 222.14844,3.04883 -9.7793,2.24805 a 101.63934,101.63934 0 0 1 -27.82812,60.11523 l -9.67774,-9.67773 a 88.52459,88.52459 0 0 0 23.22266,-47.1543 l -12.53906,2.88282 a 76.699837,76.699837 0 0 1 -57.40625,58.80664 l -2.35352,11.51367 a 88.52459,88.52459 0 0 0 47.54297,-24.49219 l 9.67578,9.67578 a 101.63934,101.63934 0 0 1 -60.03711,28.58789 l -1.89453,9.26758 A 111.74863,111.74863 0 0 0 375.10547,207.12695 Z" />
    <g
       id="g9"
       style="display:inline">
      <path
         style="display:inline;fill:#000000"
         d="m 263.18521,221.06875 c -27.56619,0.35015 -30.53312,-43.43505 1.58758,-44.02483 24.70631,-0.45364 31.30399,43.60704 -1.58758,44.02483 z m -124.371,-20.26195 93.03091,-21.38477 -10.67566,-23.68131 21.99497,11.24619 L 262.69532,71.5 c 0,0 2.96276,100.87904 1.37863,100.77322 -10.97341,-0.73296 -28.10427,6.24183 -28.21776,28.87488 -0.009,1.75914 -97.04198,-0.3413 -97.04198,-0.3413 z M 285.35895,177.84081 284.81747,166.5966 307,155.3354 295.76349,177.80677 Z"
         id="path7" />
      <path
         d="m 241.61971,220.73854 0.54148,11.24421 -22.18253,11.2612 11.23651,-22.47137 z"
         style="display:inline;fill:#000000"
         id="path8" />
      <path
         d="m 388.94979,198.62001 -93.03091,21.38477 10.67566,23.68131 -21.99497,-11.24619 -19.53089,95.48691 c 0,0 -2.96276,-100.87904 -1.37863,-100.77322 10.97341,0.73296 28.10427,-6.24183 28.21776,-28.87488 0.009,-1.75914 97.04198,0.3413 97.04198,0.3413 z"
         style="display:inline;fill:#000000"
         id="path9" />
    </g>
  </g>
</svg>
